<svg width="180" height="58" viewBox="0 0 180 58" fill="none" xmlns="http://www.w3.org/2000/svg">
<g clip-path="url(#clip0_1602_89)">
<path d="M88.6628 11.1779H77.5721V13.0098C77.5721 13.2446 77.6183 13.4771 77.7081 13.694C77.7978 13.9109 77.9293 14.108 78.0951 14.274C78.261 14.44 78.4578 14.5717 78.6744 14.6616C78.8911 14.7514 79.1233 14.7977 79.3578 14.7977H88.2676C88.7971 14.7986 89.3047 15.0097 89.6792 15.3846C90.0536 15.7596 90.2644 16.2678 90.2654 16.7981V21.5425H81.8715C77.7405 21.5425 74.1875 24.719 73.9863 28.8699C73.9367 29.9107 74.0988 30.9507 74.4627 31.9269C74.8266 32.903 75.3848 33.795 76.1033 34.5487C76.8218 35.3024 77.6858 35.9021 78.6427 36.3114C79.5997 36.7208 80.6296 36.9313 81.6703 36.9301H93.8733V16.3731C93.8723 15.6892 93.7367 15.0123 93.4742 14.381C93.2117 13.7497 92.8276 13.1764 92.3437 12.6939C91.8597 12.2114 91.2855 11.8292 90.6539 11.569C90.0223 11.3089 89.3457 11.176 88.6628 11.1779ZM90.269 33.3287H81.802C80.7437 33.3437 79.719 32.9567 78.9342 32.2457C78.1494 31.5346 77.6627 30.5523 77.5721 29.4964C77.5346 28.9373 77.6121 28.3764 77.7999 27.8484C77.9877 27.3205 78.2818 26.8369 78.664 26.4274C79.0461 26.018 79.5082 25.6915 80.0216 25.4682C80.535 25.2449 81.0886 25.1296 81.6483 25.1293H90.2581L90.269 33.3287Z" fill="#002D5D"/>
<path d="M142.875 36.9081H153.966V35.0762C153.966 34.6011 153.777 34.1454 153.442 33.8094C153.106 33.4734 152.651 33.2847 152.177 33.2847H143.267C142.737 33.2837 142.23 33.0726 141.855 32.6977C141.481 32.3228 141.27 31.8145 141.269 31.2843V26.5398H149.656C153.787 26.5398 157.34 23.3597 157.541 19.2307C157.59 18.19 157.428 17.15 157.064 16.1738C156.7 15.1977 156.142 14.3057 155.424 13.552C154.705 12.7983 153.841 12.1986 152.884 11.7892C151.927 11.3799 150.897 11.1694 149.857 11.1706H137.654V31.6873C137.651 32.3742 137.785 33.0548 138.047 33.6898C138.308 34.3248 138.693 34.9016 139.178 35.387C139.664 35.8723 140.24 36.2567 140.875 36.5177C141.509 36.7788 142.189 36.9115 142.875 36.9081ZM141.269 14.7574H149.736C150.791 14.7449 151.811 15.1316 152.593 15.8401C153.376 16.5486 153.862 17.5266 153.955 18.5786C153.993 19.1378 153.915 19.6987 153.727 20.2266C153.539 20.7545 153.245 21.2382 152.863 21.6476C152.481 22.0571 152.019 22.3836 151.506 22.6069C150.992 22.8302 150.438 22.9455 149.879 22.9457H141.269V14.7574Z" fill="#002D5D"/>
<path d="M97.4043 21.2055V36.7762H99.1972C99.676 36.7752 100.135 36.5841 100.473 36.2448C100.811 35.9055 101.001 35.4457 101.001 34.9663V21.2055C101 20.322 101.173 19.447 101.51 18.6305C101.847 17.814 102.342 17.072 102.965 16.447C103.589 15.8219 104.329 15.3261 105.144 14.9877C105.959 14.6494 106.833 14.4753 107.716 14.4753C108.598 14.4748 109.471 14.6483 110.286 14.986C111.101 15.3236 111.842 15.8187 112.466 16.4431C113.09 17.0674 113.584 17.8087 113.922 18.6246C114.26 19.4405 114.434 20.315 114.434 21.1982V34.992C114.434 35.4694 114.623 35.9274 114.96 36.2653C115.296 36.6032 115.753 36.7936 116.23 36.7945H118.03V21.2238C118.03 18.4847 116.944 15.8577 115.009 13.9208C113.075 11.984 110.451 10.8958 107.716 10.8958C104.984 10.8968 102.364 11.9829 100.431 13.9157C98.4976 15.8485 97.4091 18.4702 97.4043 21.2055Z" fill="#002D5D"/>
<path d="M178.654 12.9658V11.1779H167.219C165.263 11.1789 163.387 11.9574 162.004 13.3423C160.621 14.7273 159.843 16.6054 159.842 18.564C159.846 20.5203 160.625 22.3952 162.008 23.7772C163.391 25.1592 165.265 25.9353 167.219 25.9353H172.664C173.655 25.9363 174.605 26.3312 175.306 27.0333C176.006 27.7354 176.4 28.6872 176.4 29.6796C176.4 30.1709 176.303 30.6573 176.115 31.1111C175.927 31.5649 175.652 31.9773 175.305 32.3246C174.958 32.672 174.547 32.9475 174.093 33.1355C173.64 33.3235 173.154 33.4203 172.664 33.4203H162.989C162.512 33.4203 162.054 33.6102 161.716 33.9482C161.379 34.2863 161.189 34.7447 161.189 35.2228V37.0217H172.623C174.58 37.0217 176.456 36.2435 177.839 34.8584C179.223 33.4732 180 31.5946 180 29.6357C179.999 27.6771 179.222 25.799 177.838 24.414C176.455 23.0291 174.58 22.2506 172.623 22.2496H167.179C166.688 22.2496 166.202 22.1528 165.748 21.9645C165.295 21.7763 164.883 21.5005 164.536 21.1527C164.189 20.805 163.914 20.3922 163.726 19.938C163.539 19.4837 163.442 18.9969 163.443 18.5053C163.443 17.5133 163.836 16.5618 164.537 15.8603C165.238 15.1588 166.188 14.7647 167.179 14.7647H176.853C177.33 14.7647 177.787 14.5753 178.125 14.238C178.462 13.9008 178.653 13.4433 178.654 12.9658Z" fill="#002D5D"/>
<path d="M134.346 12.724C134.346 12.2479 134.157 11.7913 133.821 11.4546C133.485 11.118 133.029 10.9288 132.553 10.9288H128.261V5.29038C128.261 4.81426 128.072 4.35763 127.736 4.02096C127.4 3.6843 126.944 3.49518 126.468 3.49518H124.679V10.9288H120.383C120.148 10.9288 119.915 10.9753 119.697 11.0655C119.48 11.1558 119.283 11.2881 119.117 11.4548C118.95 11.6216 118.819 11.8195 118.729 12.0373C118.639 12.2551 118.593 12.4884 118.594 12.724C118.594 13.1995 118.782 13.6556 119.118 13.9921C119.453 14.3287 119.908 14.5183 120.383 14.5192H124.679V34.501C124.678 34.8189 124.74 35.1337 124.862 35.4275C124.983 35.7213 125.161 35.9883 125.385 36.2132C125.609 36.4382 125.876 36.6166 126.169 36.7383C126.462 36.8601 126.776 36.9228 127.094 36.9228H134.346V35.1092C134.346 34.8764 134.3 34.6458 134.211 34.4306C134.122 34.2155 133.992 34.02 133.827 33.8554C133.663 33.6907 133.468 33.5601 133.253 33.471C133.038 33.3819 132.808 33.336 132.575 33.336H128.799C128.66 33.335 128.527 33.279 128.429 33.1802C128.331 33.0813 128.276 32.9477 128.276 32.8084V14.5192H132.568C133.041 14.5154 133.493 14.3245 133.826 13.9883C134.159 13.652 134.346 13.1976 134.346 12.724Z" fill="#002D5D"/>
<path d="M76.5695 43.1657C76.8709 42.6187 77.3164 42.1651 77.8575 41.8541C78.4067 41.5371 79.0311 41.3738 79.665 41.3814C80.3866 41.365 81.0971 41.5625 81.7068 41.9493C82.2937 42.3293 82.7398 42.8918 82.9765 43.5504H81.8788C81.7002 43.1394 81.4017 42.792 81.0226 42.5538C80.6185 42.3122 80.1538 42.1915 79.6833 42.2058C79.2125 42.1978 78.7483 42.3181 78.3404 42.5538C77.9427 42.7891 77.6193 43.132 77.4074 43.543C77.1857 44.012 77.0706 44.5244 77.0706 45.0433C77.0706 45.5622 77.1857 46.0746 77.4074 46.5436C77.6204 46.9539 77.9435 47.2964 78.3404 47.5328C78.7489 47.767 79.2127 47.8872 79.6833 47.8808C80.1532 47.8944 80.6174 47.7751 81.0226 47.5365C81.4017 47.3014 81.7003 46.9564 81.8788 46.5473H82.9765C82.7375 47.2006 82.2916 47.7578 81.7068 48.1336C81.0953 48.5157 80.3856 48.7105 79.665 48.6942C79.0316 48.7013 78.4077 48.5395 77.8575 48.2252C77.3179 47.9188 76.8724 47.4703 76.5695 46.9283C76.2598 46.3497 76.0977 45.7034 76.0977 45.047C76.0977 44.3905 76.2598 43.7443 76.5695 43.1657Z" fill="#52B5E5"/>
<path d="M85.7939 48.3645C85.367 48.1281 85.0176 47.7731 84.7877 47.3423C84.5372 46.8701 84.4112 46.3418 84.4218 45.8072C84.4091 45.2759 84.5353 44.7506 84.7877 44.2831C85.0241 43.8541 85.3784 43.502 85.8086 43.2683C86.2547 43.0349 86.7505 42.913 87.2539 42.913C87.7572 42.913 88.2531 43.0349 88.6992 43.2683C89.1282 43.5018 89.4822 43.8524 89.7201 44.2794C89.9742 44.7476 90.1005 45.2746 90.086 45.8072C90.1034 46.3425 89.977 46.8726 89.7201 47.3423C89.4754 47.7744 89.1139 48.1287 88.6772 48.3645C88.2287 48.6099 87.7248 48.736 87.2136 48.7308C86.7168 48.7332 86.2277 48.607 85.7939 48.3645ZM88.165 47.6647C88.4728 47.5059 88.7273 47.26 88.8968 46.9576C89.0875 46.605 89.181 46.208 89.1675 45.8072C89.1796 45.4075 89.0889 45.0113 88.9041 44.6568C88.7429 44.3604 88.5004 44.1163 88.2053 43.9534C87.9182 43.8 87.5975 43.7207 87.2722 43.7226C86.9454 43.7185 86.623 43.7979 86.3354 43.9534C86.043 44.115 85.8049 44.3598 85.6512 44.6568C85.4706 45.0126 85.3825 45.4083 85.3951 45.8072C85.3823 46.2093 85.4691 46.6082 85.6475 46.9686C85.7969 47.2638 86.0298 47.5085 86.3172 47.672C86.6011 47.8266 86.9198 47.906 87.2429 47.9028C87.5714 47.9035 87.8947 47.8217 88.1833 47.6647H88.165Z" fill="#52B5E5"/>
<path d="M92.6767 41.0334V48.6319H91.7437V41.0334H92.6767Z" fill="#52B5E5"/>
<path d="M94.6781 44.2831C94.8946 43.8612 95.2273 43.5103 95.6368 43.2719C96.0514 43.0279 96.5244 42.9012 97.0053 42.9056C97.4305 42.9032 97.8494 43.0078 98.2237 43.2097C98.5783 43.3913 98.8768 43.6661 99.0873 44.0047V41.0261H100.028V48.6246H99.0873V47.5658C98.8925 47.9111 98.608 48.1972 98.264 48.3938C97.8783 48.6158 97.4391 48.7273 96.9943 48.7162C96.5166 48.7223 96.0467 48.5954 95.6368 48.3498C95.2253 48.1025 94.8928 47.7428 94.6781 47.313C94.4328 46.8442 94.3071 46.3218 94.3122 45.7926C94.306 45.2667 94.4318 44.7476 94.6781 44.2831ZM98.8312 44.7008C98.6726 44.3961 98.4317 44.1422 98.1359 43.968C97.8445 43.8034 97.5156 43.7168 97.1809 43.7168C96.8463 43.7168 96.5173 43.8034 96.2259 43.968C95.9304 44.1402 95.6914 44.3948 95.538 44.7008C95.3613 45.0396 95.2732 45.4178 95.2819 45.7999C95.2716 46.1904 95.3597 46.5772 95.538 46.9247C95.6945 47.2284 95.9328 47.4822 96.2259 47.6574C96.514 47.8271 96.843 47.9145 97.1773 47.9102C97.5137 47.914 97.845 47.8267 98.1359 47.6574C98.4326 47.4844 98.6738 47.2302 98.8312 46.9247C99.0046 46.5846 99.0926 46.2073 99.0873 45.8255C99.0989 45.4349 99.0107 45.0478 98.8312 44.7008Z" fill="#52B5E5"/>
<path d="M108.93 48.6319L107.225 45.701H106.113V48.6319H105.18V41.4767H107.489C107.96 41.4627 108.428 41.5567 108.857 41.7515C109.201 41.9085 109.491 42.1633 109.691 42.4843C109.88 42.8112 109.977 43.1837 109.969 43.5614C109.976 44.0313 109.827 44.4901 109.545 44.8657C109.223 45.2582 108.769 45.519 108.268 45.5984L110.061 48.599L108.93 48.6319ZM106.098 44.9682H107.474C107.678 44.9858 107.884 44.9624 108.08 44.8995C108.275 44.8366 108.456 44.7354 108.612 44.6019C108.738 44.469 108.835 44.3117 108.898 44.1397C108.961 43.9677 108.988 43.7846 108.978 43.6017C108.99 43.4209 108.963 43.2396 108.9 43.0698C108.837 42.8999 108.739 42.7453 108.612 42.6161C108.292 42.3534 107.883 42.2225 107.47 42.2498H106.113L106.098 44.9682Z" fill="#52B5E5"/>
<path d="M112.831 48.3645C112.405 48.1266 112.056 47.772 111.824 47.3423C111.574 46.8701 111.448 46.3418 111.458 45.8072C111.446 45.2759 111.572 44.7506 111.824 44.2831C112.061 43.8541 112.415 43.502 112.845 43.2683C113.291 43.0349 113.787 42.913 114.29 42.913C114.794 42.913 115.29 43.0349 115.736 43.2683C116.165 43.501 116.52 43.8518 116.757 44.2794C117.011 44.7476 117.137 45.2746 117.123 45.8072C117.134 46.3442 117.002 46.8744 116.738 47.3423C116.494 47.7734 116.134 48.1275 115.699 48.3645C115.25 48.609 114.747 48.735 114.236 48.7308C113.744 48.7302 113.26 48.6041 112.831 48.3645ZM115.205 47.6647C115.505 47.502 115.751 47.2565 115.915 46.9576C116.107 46.6054 116.202 46.2083 116.19 45.8072C116.201 45.4072 116.109 45.011 115.922 44.6568C115.762 44.3596 115.52 44.1153 115.224 43.9534C114.935 43.8019 114.614 43.7227 114.289 43.7227C113.963 43.7227 113.642 43.8019 113.354 43.9534C113.061 44.115 112.823 44.3598 112.67 44.6568C112.491 45.0132 112.403 45.4084 112.413 45.8072C112.401 46.2093 112.487 46.6082 112.666 46.9686C112.816 47.2648 113.05 47.5097 113.339 47.672C113.622 47.827 113.939 47.9065 114.261 47.9028C114.591 47.9031 114.915 47.8212 115.205 47.6647Z" fill="#52B5E5"/>
<path d="M119.801 48.3645C119.376 48.127 119.028 47.7722 118.799 47.3423C118.546 46.8708 118.42 46.342 118.433 45.8072C118.418 45.2758 118.545 44.75 118.799 44.2831C119.035 43.8553 119.388 43.5034 119.816 43.2683C120.263 43.0349 120.759 42.913 121.263 42.913C121.767 42.913 122.263 43.0349 122.71 43.2683C123.138 43.5016 123.491 43.8523 123.727 44.2795C123.977 44.7511 124.108 45.277 124.108 45.8109C124.108 46.3448 123.977 46.8706 123.727 47.3423C123.483 47.7745 123.121 48.1287 122.685 48.3645C122.236 48.6097 121.732 48.7359 121.221 48.7309C120.724 48.7328 120.235 48.6066 119.801 48.3645ZM122.176 47.6647C122.475 47.5003 122.722 47.2553 122.889 46.9576C123.066 46.6 123.159 46.2063 123.159 45.8072C123.159 45.4081 123.066 45.0144 122.889 44.6568C122.731 44.3599 122.489 44.1156 122.194 43.9534C121.905 43.8019 121.584 43.7228 121.258 43.7228C120.931 43.7228 120.61 43.8019 120.321 43.9534C120.03 44.1163 119.794 44.3608 119.64 44.6568C119.46 45.0126 119.372 45.4083 119.384 45.8072C119.371 46.2093 119.458 46.6082 119.637 46.9686C119.785 47.2646 120.018 47.5095 120.306 47.672C120.589 47.8261 120.906 47.9056 121.228 47.9029C121.559 47.9046 121.885 47.8227 122.176 47.6647Z" fill="#52B5E5"/>
<path d="M133.68 43.173C134.025 43.3581 134.307 43.6427 134.489 43.99C134.7 44.3992 134.803 44.8558 134.789 45.3163V48.6319H133.866V45.4482C133.897 44.9807 133.748 44.5192 133.449 44.1586C133.305 44.0083 133.13 43.8906 132.936 43.8135C132.742 43.7364 132.534 43.7017 132.326 43.7116C132.111 43.7019 131.896 43.7387 131.697 43.8197C131.497 43.9006 131.317 44.0237 131.17 44.1805C130.859 44.5581 130.704 45.0406 130.738 45.5288V48.6319H129.816V45.4482C129.847 44.9807 129.697 44.5192 129.399 44.1586C129.254 44.0083 129.079 43.8906 128.885 43.8135C128.692 43.7364 128.484 43.7017 128.275 43.7116C128.06 43.7019 127.846 43.7387 127.646 43.8197C127.447 43.9006 127.267 44.0237 127.119 44.1805C126.808 44.5581 126.654 45.0406 126.687 45.5288V48.6319H125.754V43.0045H126.687V43.8142C126.865 43.5261 127.118 43.2928 127.419 43.14C127.739 42.9797 128.093 42.8981 128.451 42.9019C128.889 42.8932 129.322 43.0033 129.702 43.2207C130.066 43.436 130.35 43.7639 130.511 44.1549C130.661 43.7686 130.935 43.4435 131.291 43.2316C131.656 43.0108 132.075 42.8966 132.502 42.9019C132.911 42.8933 133.316 42.9865 133.68 43.173Z" fill="#52B5E5"/>
<path d="M140.808 42.2351V44.6275H143.41V45.3969H140.808V47.8625H143.735V48.6319H139.89V41.4657H143.735V42.2351H140.808Z" fill="#52B5E5"/>
<path d="M148.477 48.6319L147.141 46.5363L145.861 48.6319H144.898L146.728 45.8402L144.898 43.0045H145.956L147.288 45.0891L148.557 43.0045H149.531L147.727 45.7889L149.556 48.6319H148.477Z" fill="#52B5E5"/>
<path d="M152.623 43.2353C153.012 43.0137 153.453 42.9023 153.9 42.9129C154.377 42.91 154.846 43.0366 155.258 43.2793C155.666 43.5187 155.999 43.8694 156.216 44.2904C156.463 44.7561 156.589 45.2764 156.582 45.8036C156.587 46.3328 156.462 46.8551 156.216 47.324C156 47.7527 155.668 48.1119 155.258 48.3608C154.848 48.6064 154.378 48.7333 153.9 48.7272C153.457 48.7369 153.019 48.6254 152.634 48.4048C152.292 48.212 152.004 47.9345 151.8 47.5988V51.3028H150.867V43.0045H151.8V44.0413C151.998 43.7041 152.282 43.4258 152.623 43.2353ZM155.356 44.7008C155.202 44.3946 154.961 44.14 154.665 43.968C154.372 43.8025 154.042 43.7166 153.706 43.7189C153.368 43.7141 153.035 43.8034 152.744 43.9767C152.453 44.15 152.216 44.4007 152.06 44.7008C151.881 45.039 151.791 45.4173 151.8 45.7999C151.792 46.1824 151.882 46.5605 152.06 46.899C152.216 47.1991 152.453 47.4498 152.744 47.6231C153.035 47.7964 153.368 47.8857 153.706 47.8809C154.042 47.8836 154.373 47.7963 154.665 47.6281C154.959 47.4534 155.199 47.1995 155.356 46.8953C155.535 46.5479 155.623 46.1611 155.612 45.7706C155.618 45.3946 155.53 45.0232 155.356 44.6898V44.7008Z" fill="#52B5E5"/>
<path d="M163.304 46.1663H158.803C158.804 46.4037 158.852 46.6386 158.944 46.857C159.037 47.0754 159.173 47.2729 159.344 47.4377C159.515 47.6025 159.717 47.7311 159.938 47.8161C160.16 47.901 160.396 47.9405 160.633 47.9322C160.991 47.9462 161.344 47.8475 161.643 47.6501C161.91 47.4673 162.11 47.2023 162.213 46.8953H163.216C163.075 47.4248 162.757 47.8901 162.316 48.2143C161.827 48.5658 161.235 48.7449 160.633 48.7235C160.132 48.7292 159.639 48.6028 159.202 48.3572C158.781 48.119 158.438 47.764 158.214 47.335C157.963 46.8629 157.837 46.3345 157.848 45.7999C157.835 45.2696 157.954 44.7443 158.196 44.2721C158.415 43.8461 158.755 43.4943 159.173 43.261C159.62 43.0119 160.125 42.8855 160.636 42.8946C161.132 42.8908 161.62 43.0171 162.052 43.261C162.452 43.4853 162.781 43.818 163 44.2208C163.227 44.6453 163.342 45.1208 163.333 45.6021C163.333 45.7816 163.322 45.9831 163.304 46.1663ZM162.133 44.4883C161.98 44.2356 161.758 44.0322 161.493 43.9021C161.213 43.7684 160.906 43.7007 160.596 43.7043C160.152 43.6935 159.721 43.8549 159.392 44.1549C159.046 44.4823 158.842 44.9318 158.821 45.4079H162.371C162.379 45.0851 162.297 44.7665 162.133 44.4883Z" fill="#52B5E5"/>
<path d="M166.608 43.1694C166.943 42.9842 167.322 42.8919 167.705 42.9019V43.8691H167.46C166.414 43.8691 165.891 44.437 165.891 45.5727V48.6319H164.958V43.0045H165.891V43.9204C166.051 43.6053 166.301 43.3441 166.608 43.1694Z" fill="#52B5E5"/>
<path d="M170.348 43.7849V47.0822C170.327 47.2914 170.388 47.5004 170.519 47.6647C170.693 47.7959 170.91 47.8561 171.127 47.8332H171.811V48.6246H170.973C170.551 48.654 170.133 48.5232 169.802 48.2582C169.66 48.0995 169.553 47.9131 169.486 47.7107C169.419 47.5084 169.395 47.2944 169.414 47.0822V43.7849H168.683V43.0155H169.414V41.5866H170.348V43.0045H171.811V43.7849H170.348Z" fill="#52B5E5"/>
<path d="M174.171 48.5037C173.85 48.3748 173.57 48.1623 173.359 47.8882C173.161 47.6252 173.048 47.3084 173.033 46.9796H173.996C174.007 47.1159 174.048 47.2479 174.117 47.3663C174.185 47.4847 174.279 47.5866 174.391 47.6647C174.662 47.8549 174.989 47.949 175.32 47.9322C175.618 47.9493 175.912 47.8668 176.158 47.6977C176.253 47.6299 176.331 47.5403 176.384 47.4364C176.438 47.3326 176.465 47.2174 176.465 47.1005C176.469 46.9873 176.44 46.8755 176.383 46.7781C176.325 46.6807 176.241 46.6019 176.14 46.551C175.816 46.3897 175.475 46.2668 175.123 46.1846C174.775 46.0965 174.434 45.9851 174.102 45.8512C173.84 45.7387 173.609 45.5653 173.428 45.3456C173.229 45.0987 173.128 44.787 173.143 44.47C173.142 44.1857 173.232 43.9086 173.399 43.6786C173.588 43.4266 173.841 43.2294 174.131 43.1071C174.472 42.9625 174.84 42.8913 175.21 42.8983C175.753 42.8728 176.287 43.0402 176.718 43.3709C176.908 43.5292 177.061 43.7267 177.167 43.95C177.273 44.1733 177.33 44.4169 177.333 44.6642H176.4C176.392 44.527 176.356 44.3929 176.293 44.271C176.23 44.149 176.141 44.042 176.034 43.957C175.789 43.7917 175.503 43.6992 175.209 43.6901C174.914 43.681 174.623 43.7558 174.369 43.9058C174.275 43.9666 174.198 44.0503 174.146 44.149C174.093 44.2477 174.067 44.3582 174.069 44.47C174.066 44.5539 174.081 44.6374 174.112 44.7155C174.143 44.7935 174.189 44.8646 174.248 44.9243C174.378 45.0508 174.532 45.1493 174.702 45.2137C174.881 45.2833 175.133 45.3639 175.455 45.4555C175.79 45.5421 176.119 45.6498 176.44 45.7779C176.691 45.8832 176.914 46.0464 177.091 46.2542C177.279 46.49 177.379 46.7842 177.373 47.0859C177.375 47.3829 177.286 47.6734 177.117 47.9175C176.93 48.1745 176.677 48.3758 176.385 48.5C176.046 48.6447 175.681 48.7159 175.313 48.7089C174.922 48.7174 174.534 48.6477 174.171 48.5037Z" fill="#52B5E5"/>
<path d="M61.9368 36.3952L53.155 51.6142C52.039 53.5564 50.431 55.1695 48.4935 56.2907C46.5559 57.4118 44.3572 58.0015 42.1193 58H24.5558C21.4071 57.9988 18.3702 56.8307 16.0303 54.721C16.6648 55.017 17.3219 55.262 17.9952 55.4537C18.1781 55.5124 18.3611 55.5563 18.5294 55.604C18.6977 55.6516 18.9172 55.6955 19.1112 55.7285C19.3051 55.7615 19.5686 55.8091 19.8064 55.8421H19.854C20.015 55.8677 20.1833 55.8897 20.3553 55.9007L20.7907 55.9337C21.0395 55.9337 21.281 55.9593 21.5225 55.9593H39.0604C41.2971 55.9575 43.494 55.3665 45.4304 54.2456C47.3669 53.1247 48.9747 51.5134 50.0924 49.5735L58.8742 34.3435C59.5803 33.1214 60.0752 31.7886 60.3378 30.4014C60.3744 30.1962 60.4183 30.002 60.4402 29.7969C60.4622 29.5917 60.4878 29.4561 60.5097 29.2839C60.6353 28.0183 60.5774 26.7411 60.3378 25.492C60.1734 24.6735 59.9283 23.8733 59.606 23.1033C59.39 22.587 59.1457 22.0831 58.8742 21.5938L50.0924 6.37852C49.7483 5.79869 49.367 5.24184 48.9508 4.71152C48.7349 4.44773 48.519 4.20593 48.2885 3.97878C48.0696 3.73769 47.8375 3.50897 47.5933 3.29367C49.9203 4.39866 51.8554 6.18798 53.1404 8.42285L61.9221 23.6272C63.0454 25.5663 63.6381 27.7676 63.6407 30.0092C63.6433 32.2509 63.0556 34.4535 61.9368 36.3952Z" fill="#002D5D"/>
<path d="M33.528 17.4905L32.0937 17.1461C31.7936 17.3293 31.2118 17.6151 30.7215 17.3403C29.9348 16.919 29.9898 16.3254 30.0263 16.1203L29.0786 15.3289L33.528 17.4905Z" fill="#3CB4E5"/>
<path d="M60.5356 29.2913C60.5136 29.4635 60.4881 29.632 60.4661 29.8042C60.4441 29.9764 60.4002 30.2035 60.3636 30.4087C55.2995 28.6831 48.7828 27.7488 45.2115 23.1436C42.6794 19.8756 40.1473 19.74 39.829 19.6704C41.5378 18.531 42.8953 16.897 41.6988 15.3289C40.4108 13.6729 36.9054 13.5703 34.088 15.263C33.3818 14.8636 32.6865 14.4167 31.9547 14.0869C29.0275 12.7497 26.1002 11.4344 23.173 10.2254C23.1678 10.2231 23.1622 10.2219 23.1565 10.2219C23.1509 10.2219 23.1452 10.2231 23.1401 10.2254C23.3261 10.3718 23.4762 10.5587 23.5789 10.7721C23.6816 10.9855 23.7343 11.2195 23.7328 11.4564C23.7328 11.7229 23.6658 11.9851 23.5379 12.2188C23.41 12.4525 23.2254 12.6502 23.001 12.7936C22.9606 12.8153 22.9191 12.8349 22.8766 12.8523C21.5095 13.5177 20.4395 14.67 19.8762 16.0836C19.9346 17.8384 20.5455 19.5298 21.6215 20.9161C22.4302 21.9346 23.3194 22.9054 24.1207 23.9093C29.5507 30.808 33.7477 38.282 34.5014 47.2251C34.6734 49.2255 34.6954 53.3728 34.6734 55.9777H21.563C21.3142 55.9777 21.0727 55.9777 20.8312 55.952L20.3958 55.919C20.2238 55.919 20.0555 55.8861 19.8945 55.8604H19.8469C19.6091 55.8274 19.3822 55.7945 19.1517 55.7468C18.9212 55.6992 18.7638 55.6662 18.5699 55.6223C18.376 55.5783 18.204 55.5307 18.0357 55.4721C17.3624 55.2803 16.7053 55.0353 16.0708 54.7393C13.7524 53.6271 11.8239 51.8392 10.5383 49.6101L1.75654 34.4021C0.629442 32.4632 0.0356445 30.2598 0.0356445 28.0163C0.0356445 25.7728 0.629442 23.5694 1.75654 21.6305L10.5383 6.40414C11.654 4.46327 13.2616 2.85174 15.1988 1.73238C17.1359 0.613029 19.3337 0.0255411 21.5703 0.0293149H39.1338C42.2852 0.0287982 45.3236 1.20443 47.6557 3.32664C47.9 3.54194 48.1321 3.77066 48.351 4.01175C48.5815 4.24989 48.7974 4.4917 49.0132 4.74449C49.4451 5.26553 49.8308 5.8233 50.1658 6.41147L58.9476 21.6268C59.2235 22.1138 59.4679 22.618 59.6794 23.1363C60.0017 23.9063 60.2469 24.7064 60.4112 25.525C60.6325 26.768 60.6744 28.0364 60.5356 29.2913Z" fill="#3CB4E5"/>
<path d="M23.7182 11.4454C23.7182 11.7119 23.6512 11.9741 23.5233 12.2078C23.3954 12.4415 23.2107 12.6392 22.9864 12.7826C22.9459 12.8043 22.9044 12.8238 22.862 12.8412C21.4948 13.5067 20.4249 14.659 19.8616 16.0726C19.7929 14.6687 20.0786 13.2701 20.6922 12.0059C20.9114 11.5549 21.1802 11.1297 21.4935 10.7383C21.6281 10.5956 21.7915 10.4832 21.9728 10.4086C22.327 10.2123 22.7378 10.1438 23.1364 10.2144C23.3204 10.3618 23.4684 10.5493 23.5692 10.7626C23.67 10.9759 23.721 11.2094 23.7182 11.4454Z" fill="white"/>
<path d="M33.528 17.4905L32.0937 17.1461C31.7936 17.3293 31.2118 17.6151 30.7215 17.3403C29.9348 16.919 29.9898 16.3254 30.0263 16.1203L29.0786 15.3289L33.528 17.4905Z" fill="white"/>
<path d="M33.528 17.4905L32.09 17.1461L30.8935 16.8603L30.0263 16.1203L29.0786 15.3289L33.528 17.4905Z" fill="#002D5D"/>
<path d="M32.2878 16.9996C32.2273 17.0537 32.1624 17.1027 32.0938 17.1461C31.7938 17.3293 31.212 17.6151 30.7217 17.3403C29.935 16.919 29.9899 16.3254 30.0265 16.1203C30.0313 16.0964 30.0387 16.073 30.0484 16.0507L32.2878 16.9996Z" fill="#002D5D"/>
<path d="M23.7178 11.4454C23.7178 11.7119 23.6508 11.9741 23.5229 12.2078C23.395 12.4415 23.2104 12.6392 22.986 12.7826C22.9456 12.8043 22.9041 12.8238 22.8616 12.8412C22.6441 12.9559 22.4012 13.0139 22.1554 13.0098C21.8386 13.0108 21.5289 12.9153 21.2675 12.736C21.0061 12.5568 20.8054 12.3021 20.6918 12.0059C20.6242 11.8268 20.5894 11.6369 20.5894 11.4454C20.5886 11.1377 20.6763 10.8363 20.8418 10.5771L20.9223 10.4635C20.9223 10.4635 20.9443 10.4635 20.9443 10.4415C20.9443 10.4195 20.9919 10.4086 21.0138 10.3829C21.1557 10.2198 21.3313 10.0895 21.5284 10.0009C21.7255 9.91237 21.9394 9.86769 22.1554 9.87C22.5125 9.86606 22.8596 9.98796 23.136 10.2144C23.32 10.3619 23.4681 10.5493 23.5689 10.7626C23.6697 10.9759 23.7206 11.2094 23.7178 11.4454Z" fill="#002D5D"/>
<path d="M45.2113 23.1436C42.6793 19.8756 40.1472 19.74 39.8288 19.6704C41.5376 18.531 42.8951 16.897 41.6986 15.3289C40.4106 13.6729 36.9053 13.5704 34.0878 15.263C33.3816 14.8636 32.6863 14.4167 31.9545 14.0869C29.0273 12.7497 26.1 11.4344 23.1728 10.2254C23.1676 10.2231 23.162 10.2219 23.1564 10.2219C23.1507 10.2219 23.1451 10.2231 23.1399 10.2254C23.3259 10.3718 23.476 10.5588 23.5787 10.7721C23.6815 10.9855 23.7341 11.2195 23.7326 11.4564C23.7327 11.7229 23.6656 11.9851 23.5377 12.2188C23.4098 12.4525 23.2252 12.6502 23.0008 12.7936C22.9604 12.8153 22.9189 12.8349 22.8764 12.8523C21.5093 13.5177 20.4393 14.67 19.876 16.0836C19.9344 17.8384 20.5453 19.5298 21.6214 20.9161C22.43 21.9346 23.3192 22.9054 24.1205 23.9093C29.5506 30.808 33.7475 38.282 34.5013 47.2251C34.6732 49.2255 34.6952 53.3728 34.6732 55.9777H39.1007C41.3374 55.9759 43.5343 55.3848 45.4708 54.2639C47.4072 53.143 49.015 51.5317 50.1327 49.5918L58.9145 34.3618C59.6206 33.1397 60.1155 31.8069 60.3781 30.4197C55.2993 28.6831 48.7826 27.7488 45.2113 23.1436ZM32.0936 17.1461C31.7935 17.3293 31.2117 17.6151 30.7214 17.3403C29.9347 16.919 29.9897 16.3254 30.0262 16.1203L29.0785 15.3289L33.5279 17.4905L32.0936 17.1461Z" fill="white"/>
<path d="M22.9754 12.7827C22.935 12.8043 22.8934 12.8239 22.851 12.8413C21.4838 13.5067 20.4139 14.659 19.8506 16.0727C19.8545 16.0833 19.8545 16.095 19.8506 16.1056C19.7005 14.3361 20.0555 11.7092 20.8422 10.5771L20.9227 10.4635C20.9227 10.4635 20.9446 10.4635 20.9446 10.4415C20.9446 10.4196 20.9922 10.4086 21.0142 10.3829C21.3309 10.3115 21.6604 10.3203 21.9728 10.4086L22.2436 10.4635C22.2436 10.4635 24.0585 12.0536 22.9754 12.7827Z" fill="#002D5D"/>
</g>
<defs>
<clipPath id="clip0_1602_89">
<rect width="180" height="58" fill="white"/>
</clipPath>
</defs>
</svg>
